<svg width="14" height="14" xmlns="http://www.w3.org/2000/svg">
  <path d="M7.008 3.312v3.504L10 8.592l-.496.848L6 7.312v-4h1.008zM6.656 12c.96 0 1.856-.245 2.688-.736.81-.47 1.45-1.11 1.92-1.92.49-.832.736-1.728.736-2.688 0-.96-.245-1.856-.736-2.688a5.182 5.182 0 0 0-1.92-1.92 5.201 5.201 0 0 0-2.688-.736c-.96 0-1.856.245-2.688.736-.81.47-1.45 1.11-1.92 1.92a5.201 5.201 0 0 0-.736 2.688c0 .96.245 1.856.736 2.688.47.81 1.11 1.45 1.92 1.92.832.49 1.728.736 2.688.736zm0-12c1.216 0 2.341.304 3.376.912A6.308 6.308 0 0 1 12.4 3.28a6.546 6.546 0 0 1 .912 3.376 6.546 6.546 0 0 1-.912 3.376 6.308 6.308 0 0 1-2.368 2.368 6.546 6.546 0 0 1-3.376.912A6.546 6.546 0 0 1 3.28 12.4a6.428 6.428 0 0 1-2.368-2.384A6.517 6.517 0 0 1 0 6.656c0-1.205.304-2.325.912-3.36A6.55 6.55 0 0 1 3.296.912 6.517 6.517 0 0 1 6.656 0z" fill="#63729A" fill-rule="evenodd"/>
</svg>